<?xml version="1.0" encoding="UTF-8"?><svg xmlns="http://www.w3.org/2000/svg" xmlns:xlink="http://www.w3.org/1999/xlink" viewBox="0 0 48 48" version="1.1"><g id="surface1"><path d="M48 24.398s.102.5-.2 1.204c-.902 1.597-5.402 3.5-7.698 4.398-3.5-.7-6.704-1.898-9-2.5 4-.8 8.097-2.102 9.398-2.602 1-.398 3.398-1.597 4.3-2.398L46 21z" fill="#0D47A1"/><path d="M0 19.5c6.7-.3 29.602-1.5 32.3-1.5 2.802 0 7.802-.102 9 .3 1.2.302 2.7.5 3.9 1.5 1.198 1 2.5 3.2 2.902 4.598-.704-1-1.801-1.898-2.801-2.097-2.903-.2-12-.301-12-.301s-15.2.102-20.301-.3c-5.3-.5-9.898-1.2-13-2.2" fill="#FF3D00"/></g><metadata><rdf:RDF xmlns:rdf="http://www.w3.org/1999/02/22-rdf-syntax-ns#" xmlns:rdfs="http://www.w3.org/2000/01/rdf-schema#" xmlns:dc="http://purl.org/dc/elements/1.1/"><rdf:Description about="https://iconscout.com/legal#licenses" dc:title="british,airways" dc:description="british,airways" dc:publisher="Iconscout" dc:date="2017-12-15" dc:format="image/svg+xml" dc:language="en"><dc:creator><rdf:Bag><rdf:li>Icons8</rdf:li></rdf:Bag></dc:creator></rdf:Description></rdf:RDF></metadata></svg>